<!DOCTYPE svg PUBLIC "-//W3C//DTD SVG 1.1//EN" "http://www.w3.org/Graphics/SVG/1.1/DTD/svg11.dtd">
<!-- Uploaded to: SVG Repo, www.svgrepo.com, Transformed by: SVG Repo Mixer Tools -->
<svg width="800px" height="800px" viewBox="-51.2 -51.2 614.40 614.40" version="1.1" xmlns="http://www.w3.org/2000/svg" xmlns:xlink="http://www.w3.org/1999/xlink" fill="#ffffff">
<g id="SVGRepo_bgCarrier" stroke-width="0">
<path transform="translate(-51.2, -51.2), scale(38.4)" fill="#B5651D" d="M9.166.33a2.25 2.25 0 00-2.332 0l-5.25 3.182A2.25 2.25 0 00.5 5.436v5.128a2.25 2.25 0 001.084 1.924l5.25 3.182a2.25 2.25 0 002.332 0l5.25-3.182a2.25 2.25 0 001.084-1.924V5.436a2.25 2.25 0 00-1.084-1.924L9.166.33z" strokewidth="0"/>
</g>
<g id="SVGRepo_tracerCarrier" stroke-linecap="round" stroke-linejoin="round"/>
<g id="SVGRepo_iconCarrier"> <title>add-circle</title> <g id="Page-1" stroke="none" stroke-width="1" fill="none" fill-rule="evenodd"> <g id="drop" fill="#fbdf4b" transform="translate(42.666667, 42.666667)"> <path d="M213.333333,3.55271368e-14 C269.912851,3.55271368e-14 324.175019,22.4761259 364.18278,62.4838867 C404.190541,102.491647 426.666667,156.753816 426.666667,213.333333 C426.666667,331.15408 331.15408,426.666667 213.333333,426.666667 C95.5125867,426.666667 3.55271368e-14,331.15408 3.55271368e-14,213.333333 C3.55271368e-14,95.5125867 95.5125867,3.55271368e-14 213.333333,3.55271368e-14 Z M213.333333,42.6666667 C119.076736,42.6666667 42.6666667,119.076736 42.6666667,213.333333 C42.6666667,307.589931 119.076736,384 213.333333,384 C258.596948,384 302.006682,366.019099 334.012891,334.012891 C366.019099,302.006682 384,258.596948 384,213.333333 C384,119.076736 307.589931,42.6666667 213.333333,42.6666667 Z M234.666667,106.666667 L234.666,192 L320,192 L320,234.666667 L234.666,234.666 L234.666667,320 L192,320 L192,234.666 L106.666667,234.666667 L106.666667,192 L192,192 L192,106.666667 L234.666667,106.666667 Z" id="add-workorder"> </path> </g> </g> </g>
</svg>